<svg width="19" height="19" viewBox="0 0 19 19" fill="none" xmlns="http://www.w3.org/2000/svg">
<path d="M8.99705 4.37695C7.77069 4.37695 6.59455 4.86412 5.72739 5.73129C4.86022 6.59846 4.37305 7.77459 4.37305 9.00095C4.37305 10.2273 4.86022 11.4034 5.72739 12.2706C6.59455 13.1378 7.77069 13.625 8.99705 13.625C10.2234 13.625 11.3995 13.1378 12.2667 12.2706C13.1339 11.4034 13.621 10.2273 13.621 9.00095C13.621 7.77459 13.1339 6.59846 12.2667 5.73129C11.3995 4.86412 10.2234 4.37695 8.99705 4.37695V4.37695ZM8.99705 12.004C8.20034 12.004 7.43626 11.6875 6.8729 11.1241C6.30954 10.5607 5.99305 9.79666 5.99305 8.99995C5.99305 8.20324 6.30954 7.43916 6.8729 6.8758C7.43626 6.31245 8.20034 5.99595 8.99705 5.99595C9.79376 5.99595 10.5578 6.31245 11.1212 6.8758C11.6846 7.43916 12.001 8.20324 12.001 8.99995C12.001 9.79666 11.6846 10.5607 11.1212 11.1241C10.5578 11.6875 9.79376 12.004 8.99705 12.004V12.004Z" fill="#848484"/>
<path d="M13.8041 5.28491C14.3994 5.28491 14.8821 4.80227 14.8821 4.20691C14.8821 3.61154 14.3994 3.12891 13.8041 3.12891C13.2087 3.12891 12.7261 3.61154 12.7261 4.20691C12.7261 4.80227 13.2087 5.28491 13.8041 5.28491Z" fill="#848484"/>
<path d="M17.531 3.11088C17.2995 2.51306 16.9457 1.97017 16.4923 1.51694C16.0389 1.06372 15.4959 0.710154 14.898 0.478883C14.1983 0.21624 13.4592 0.0742239 12.712 0.0588827C11.749 0.0168827 11.444 0.00488281 9.002 0.00488281C6.56 0.00488281 6.247 0.00488271 5.292 0.0588827C4.54539 0.0734396 3.80676 0.215484 3.108 0.478883C2.50994 0.709884 1.96676 1.06335 1.51333 1.51661C1.0599 1.96987 0.706228 2.51291 0.475 3.11088C0.212305 3.8105 0.0706145 4.54972 0.056 5.29688C0.013 6.25888 0 6.56388 0 9.00688C0 11.4489 -7.45058e-09 11.7599 0.056 12.7169C0.071 13.4649 0.212 14.2029 0.475 14.9039C0.706878 15.5016 1.0609 16.0445 1.51444 16.4977C1.96798 16.9509 2.51106 17.3045 3.109 17.5359C3.80643 17.8091 4.54537 17.9613 5.294 17.9859C6.257 18.0279 6.562 18.0409 9.004 18.0409C11.446 18.0409 11.759 18.0409 12.714 17.9859C13.4611 17.9707 14.2002 17.829 14.9 17.5669C15.4978 17.3351 16.0406 16.9812 16.494 16.5279C16.9473 16.0745 17.3012 15.5316 17.533 14.9339C17.796 14.2339 17.937 13.4959 17.952 12.7479C17.995 11.7859 18.008 11.4809 18.008 9.03788C18.008 6.59488 18.008 6.28488 17.952 5.32788C17.9404 4.57016 17.7979 3.82013 17.531 3.11088V3.11088ZM16.313 12.6429C16.3066 13.2192 16.2014 13.7901 16.002 14.3309C15.8518 14.7198 15.6219 15.0729 15.3271 15.3676C15.0322 15.6622 14.679 15.8919 14.29 16.0419C13.7552 16.2403 13.1904 16.3455 12.62 16.3529C11.67 16.3969 11.402 16.4079 8.966 16.4079C6.528 16.4079 6.279 16.4079 5.311 16.3529C4.74093 16.3459 4.17633 16.2407 3.642 16.0419C3.25169 15.8929 2.897 15.6636 2.60089 15.3688C2.30478 15.0741 2.07384 14.7205 1.923 14.3309C1.72645 13.7959 1.62131 13.2317 1.612 12.6619C1.569 11.7119 1.559 11.4439 1.559 9.00788C1.559 6.57088 1.559 6.32188 1.612 5.35288C1.61846 4.77691 1.72366 4.2063 1.923 3.66588C2.228 2.87688 2.853 2.25588 3.642 1.95388C4.17659 1.75602 4.74103 1.65085 5.311 1.64288C6.262 1.59988 6.529 1.58788 8.966 1.58788C11.403 1.58788 11.653 1.58788 12.62 1.64288C13.1904 1.64974 13.7554 1.75495 14.29 1.95388C14.6789 2.10416 15.0321 2.33408 15.327 2.62891C15.6218 2.92374 15.8517 3.27695 16.002 3.66588C16.1986 4.20083 16.3037 4.76504 16.313 5.33488C16.356 6.28588 16.367 6.55288 16.367 8.98988C16.367 11.4259 16.367 11.6879 16.324 12.6439H16.313V12.6429Z" fill="#848484"/>
</svg>
