<svg width="60" height="60" viewBox="0 0 60 60" fill="none" xmlns="http://www.w3.org/2000/svg">
<g opacity="0.8">
<path d="M33.3 4.5L35.4 7.8L37.5 4.5V9H40.5V0H37.5L35.4 3.3L33.6 0H30.3V9H33.3V4.5ZM49.2 9V6H45V0H42V9H49.2ZM23.4 9H26.4V3H29.1V0H20.7V3H23.4V9ZM13.8 6H16.5V9H19.5V0H16.5V3H13.8V0H10.8V9H13.8V6ZM9 12L12.6 55.2L30 60L47.4 55.2L51 12H9ZM42.9 25.8H22.5L23.1 31.2H42.3L40.8 47.7L30 50.7L19.2 47.7L18.3 39H23.7L24 43.5L30 45L36 43.5L36.6 36.6H18L16.5 20.7H43.5L42.9 25.8Z" fill="#DDDDDD"/>
</g>
</svg>
